<mxfile host="app.diagrams.net" modified="2022-04-20T12:03:33.535Z" agent="5.0 (Macintosh; Intel Mac OS X 10_15_7) AppleWebKit/537.36 (KHTML, like Gecko) Chrome/100.0.4896.127 Safari/537.36" etag="wKqKVBIFxg-Z5y-dUKAl" version="17.4.6" type="github">
  <diagram id="oaPMGqoAnV_pM8RiPdK4" name="Page-1">
    <mxGraphModel dx="946" dy="589" grid="1" gridSize="10" guides="1" tooltips="1" connect="1" arrows="1" fold="1" page="1" pageScale="1" pageWidth="827" pageHeight="1169" math="0" shadow="0">
      <root>
        <mxCell id="0" />
        <mxCell id="1" parent="0" />
        <mxCell id="fjRSgjkJsSwV8kXxflmE-3" value="" style="edgeStyle=orthogonalEdgeStyle;rounded=0;orthogonalLoop=1;jettySize=auto;html=1;" edge="1" parent="1" source="fjRSgjkJsSwV8kXxflmE-1" target="fjRSgjkJsSwV8kXxflmE-2">
          <mxGeometry relative="1" as="geometry" />
        </mxCell>
        <mxCell id="fjRSgjkJsSwV8kXxflmE-1" value="hello" style="rounded=0;whiteSpace=wrap;html=1;" vertex="1" parent="1">
          <mxGeometry x="250" y="170" width="120" height="60" as="geometry" />
        </mxCell>
        <mxCell id="fjRSgjkJsSwV8kXxflmE-2" value="world" style="shape=step;perimeter=stepPerimeter;whiteSpace=wrap;html=1;fixedSize=1;rounded=0;" vertex="1" parent="1">
          <mxGeometry x="250" y="300" width="120" height="80" as="geometry" />
        </mxCell>
      </root>
    </mxGraphModel>
  </diagram>
</mxfile>
